<svg width="32" height="32" viewBox="0 0 32 32" fill="none" xmlns="http://www.w3.org/2000/svg">
<path d="M28.8435 15.9995C28.8435 23.0803 22.8319 28.8435 15.9995 28.8435C9.16712 28.8435 3.15555 23.0803 3.15555 15.9995C3.15555 8.90598 8.90598 3.15555 15.9995 3.15555C23.093 3.15555 28.8435 8.90598 28.8435 15.9995Z" stroke="#0A0A0A" stroke-width="2"/>
<circle cx="15.9991" cy="10.8089" r="3.32624" stroke="#0A0A0A" stroke-width="2"/>
<path d="M22.7872 20.7606C22.7872 21.2529 22.362 21.9679 21.0591 22.6193C19.816 23.2409 18.0287 23.6542 15.9999 23.6542C13.9711 23.6542 12.1839 23.2409 10.9408 22.6193C9.63786 21.9679 9.21272 21.2529 9.21272 20.7606C9.21272 20.2847 9.26523 19.9215 9.3869 19.6282C9.49975 19.3562 9.693 19.093 10.0733 18.8467C10.9008 18.3107 12.5908 17.8669 15.9999 17.8669C19.4091 17.8669 21.0991 18.3107 21.9266 18.8467C22.3069 19.093 22.5001 19.3562 22.613 19.6282C22.7347 19.9215 22.7872 20.2847 22.7872 20.7606Z" stroke="#0A0A0A" stroke-width="2"/>
</svg>
