<svg width="92" height="32" viewBox="0 0 92 32" fill="none" xmlns="http://www.w3.org/2000/svg">
<g clip-path="url(#clip0_1_466)" filter="url(#filter0_d_1_466)">
<path d="M17.2992 23.0089C14.9826 23.0089 12.9032 21.5729 12.0602 19.3914L10.9684 16.569C10.8564 16.3126 10.7375 16.1467 10.6115 16.0696C10.4847 15.9925 10.2794 15.954 9.9956 15.954H9.50958L9.22187 18.34C8.89992 21.0051 6.66266 23.0089 4.00781 23.0089L6.23729 4.66816C6.56079 2.003 8.79959 0 11.4552 0L9.88984 12.8956H10.2087C10.4723 12.8956 10.6846 12.8547 10.8471 12.7729C11.0089 12.6911 11.1714 12.5425 11.3331 12.327L13.617 9.16251C14.5533 7.86572 16.0417 7.09502 17.6289 7.08637L20.3001 7.07065L15.8924 12.7423C15.6895 13.0089 15.4671 13.2448 15.2236 13.4493C14.9802 13.6545 14.7267 13.8338 14.4639 13.9872C14.677 14.1617 14.8613 14.3639 15.0184 14.5943C15.1754 14.8247 15.3146 15.0889 15.436 15.3862L18.597 23.0097H17.2992V23.0089Z" fill="#0A0A0A"/>
<path d="M20.2695 23.0089L22.4741 4.66895C22.7945 2.00378 25.0318 0 27.6865 0L25.482 18.34C25.1609 21.0051 22.9244 23.0089 20.2695 23.0089Z" fill="#0A0A0A"/>
<path d="M46.8058 19.4587C47.0189 19.6026 47.2716 19.7355 47.5655 19.8582C47.8595 19.9808 48.2445 20.043 48.7203 20.043C49.3892 20.043 49.8851 19.892 50.2094 19.5892C50.5337 19.2872 50.6956 18.931 50.6956 18.5213C50.6956 18.2035 50.6116 17.9425 50.4443 17.7372C50.2772 17.5319 50.057 17.3558 49.7834 17.2072C49.5097 17.0585 49.2009 16.9256 48.8563 16.8077C48.512 16.6905 48.1573 16.5592 47.7926 16.416C47.4279 16.2729 47.0733 16.1062 46.7289 15.9167C46.3843 15.7271 46.0757 15.4889 45.8019 15.2018C45.5282 14.9148 45.308 14.5617 45.1409 14.1409C44.9736 13.721 44.8897 13.2137 44.8897 12.6192C44.8897 11.8816 45.0243 11.1643 45.2925 10.4676C45.5609 9.77083 45.9614 9.15349 46.4931 8.61558C47.0251 8.07769 47.686 7.64515 48.4761 7.31722C49.2662 6.98928 50.1884 6.82571 51.2421 6.82571C52.2958 6.82571 53.2354 7.00973 54.062 7.37935C54.8877 7.74818 55.5689 8.19957 56.1064 8.73197L55.1413 9.97372C54.5766 10.7004 53.5805 10.9182 52.7703 10.492C52.5425 10.374 52.2842 10.2694 51.995 10.1766C51.7066 10.0846 51.3745 10.0382 50.9995 10.0382C50.3005 10.0382 49.8012 10.1743 49.5027 10.4456C49.2032 10.7177 49.054 11.0684 49.054 11.4986C49.054 11.7754 49.1373 12.0113 49.3043 12.2056C49.4716 12.4006 49.6916 12.5744 49.9653 12.7285C50.2391 12.8819 50.5509 13.0234 50.9 13.1508C51.2492 13.279 51.6068 13.4229 51.9718 13.581C52.3364 13.7399 52.6934 13.9215 53.0432 14.1268C53.3924 14.332 53.7042 14.5829 53.978 14.8802C54.2517 15.1774 54.4717 15.5313 54.6389 15.941C54.8062 16.3508 54.8893 16.8376 54.8893 17.4014C54.8893 18.2004 54.7323 18.9561 54.418 19.6686C54.104 20.3811 53.6528 21.0008 53.0658 21.5285C52.4779 22.0562 51.7664 22.4761 50.9304 22.7891C50.0944 23.1014 49.1551 23.2579 48.1114 23.2579C47.6386 23.2579 47.1666 23.2122 46.7031 23.1178C46.1923 23.014 45.7117 22.8717 45.2614 22.6893C44.8306 22.5147 44.438 22.3078 44.0834 22.0664C43.7287 21.8258 43.4402 21.567 43.217 21.2902L44.1012 19.9769C44.7078 19.0773 45.9185 18.8461 46.8058 19.4587Z" fill="#0A0A0A"/>
<path d="M56.2581 23.0089L58.4558 4.73029C58.7801 2.02974 61.0461 0 63.7359 0L62.6263 9.16094C63.3457 8.36195 64.1054 7.77291 64.9062 7.39307C65.7064 7.01404 66.5323 6.82451 67.3838 6.82451C67.971 6.82451 68.516 6.93224 69.0176 7.14693C69.5192 7.3624 69.9469 7.67697 70.3016 8.0922C70.6562 8.50742 70.9344 9.01702 71.1375 9.62177C71.3404 10.2265 71.4415 10.9233 71.4415 11.7121C71.4415 11.8969 71.4338 12.0864 71.4189 12.2806C71.4043 12.4757 71.3863 12.6754 71.3662 12.8799L70.1811 23.0089H65.4692L66.6544 12.8799C66.6747 12.7163 66.6902 12.5645 66.7002 12.4269C66.7103 12.2885 66.7158 12.158 66.7158 12.0353C66.7158 11.4816 66.6195 11.0979 66.4273 10.8824C66.2345 10.6669 65.946 10.56 65.561 10.56C65.247 10.56 64.9172 10.6551 64.5735 10.8446C64.2289 11.0342 63.8968 11.3031 63.578 11.6515C63.2592 11.9999 62.9597 12.4198 62.6815 12.9121C62.4022 13.4036 62.1721 13.9526 61.99 14.5565L61.5413 18.2802C61.2141 20.9792 58.9472 23.0089 56.2581 23.0089Z" fill="#0A0A0A"/>
<path d="M86.077 23.0083H83.5545C83.2605 23.0083 83.0148 22.9697 82.8173 22.8927C82.6197 22.8156 82.4627 22.711 82.3461 22.5773C82.2295 22.4444 82.1484 22.2855 82.1026 22.1007C82.0567 21.9159 82.0341 21.7162 82.0341 21.5015V20.3643C81.3857 21.2663 80.6664 21.9733 79.8763 22.4853C79.0862 22.998 78.2144 23.2536 77.2618 23.2536C76.6942 23.2536 76.1474 23.138 75.6202 22.9076C75.093 22.6772 74.6272 22.3288 74.2221 21.8625C73.8168 21.3961 73.4925 20.8016 73.2492 20.0796C73.0057 19.3569 72.8845 18.5044 72.8845 17.5207C72.8845 16.076 73.1449 14.7053 73.6675 13.4093C74.1893 12.1133 74.9189 10.9785 75.8557 10.0049C76.7928 9.03131 77.9049 8.25826 79.1918 7.68418C80.4781 7.1101 81.8919 6.82306 83.4324 6.82306C84.1821 6.82306 84.9418 6.87418 85.7123 6.9764C86.4823 7.07864 87.2421 7.26346 87.9925 7.53005L86.077 23.0083ZM79.1469 19.4883C79.4913 19.4883 79.8256 19.3577 80.1499 19.0966C80.4742 18.8355 80.7807 18.4793 81.0692 18.0287C81.3576 17.5781 81.6235 17.0504 81.867 16.4456C81.8693 16.4393 81.8716 16.4338 81.8739 16.4275C82.2573 15.4713 82.496 14.4623 82.6229 13.4384L83.0373 10.0985H82.7635C81.9937 10.0985 81.2915 10.2731 80.6586 10.6214C80.0255 10.9698 79.4803 11.444 79.0248 12.0433C78.569 12.6425 78.2167 13.3393 77.9686 14.1336C77.7205 14.9278 77.5961 15.7756 77.5961 16.6776C77.5961 17.1904 77.6365 17.6253 77.7175 17.9838C77.7983 18.3425 77.9072 18.6318 78.0441 18.852C78.1811 19.0722 78.3426 19.2335 78.5302 19.3365C78.7192 19.4371 78.9237 19.4883 79.1469 19.4883Z" fill="#0A0A0A"/>
<path d="M41.1529 23.0083H38.6304C38.3364 23.0083 38.0906 22.9697 37.893 22.8927C37.6956 22.8156 37.5386 22.711 37.4219 22.5773C37.3051 22.4444 37.2243 22.2855 37.1784 22.1007C37.1326 21.9159 37.11 21.7162 37.11 21.5015V20.3643C36.4614 21.2663 35.7423 21.9733 34.9522 22.4853C34.1621 22.998 33.2903 23.2536 32.3377 23.2536C31.7701 23.2536 31.2233 23.138 30.6961 22.9076C30.1689 22.6772 29.7031 22.3288 29.2978 21.8625C28.8927 21.3961 28.5684 20.8016 28.3251 20.0796C28.0816 19.3577 27.9604 18.5044 27.9604 17.5207C27.9604 16.076 28.2208 14.7053 28.7435 13.4093C29.2652 12.1133 29.9946 10.9785 30.9316 10.0049C31.8687 9.03131 32.9808 8.25826 34.2677 7.68418C35.554 7.1101 36.9678 6.82306 38.5083 6.82306C39.2577 6.82306 40.0177 6.87418 40.7882 6.9764C41.5582 7.07864 42.3179 7.26346 43.0683 7.53005L41.1529 23.0083ZM34.2219 19.4883C34.5665 19.4883 34.9008 19.3577 35.2251 19.0966C35.5494 18.8355 35.8557 18.4793 36.1442 18.0287C36.4326 17.5781 36.6987 17.0504 36.942 16.4456C36.9443 16.4393 36.9468 16.4338 36.9491 16.4275C37.3325 15.4713 37.5712 14.4623 37.6979 13.4384L38.1123 10.0985H37.8387C37.0689 10.0985 36.3667 10.2731 35.7336 10.6214C35.1005 10.9698 34.5555 11.444 34.0998 12.0433C33.644 12.6425 33.2919 13.3393 33.0438 14.1336C32.7957 14.9278 32.6713 15.7756 32.6713 16.6776C32.6713 17.1904 32.7117 17.6253 32.7925 17.9838C32.8735 18.3425 32.9824 18.6318 33.1191 18.852C33.256 19.0722 33.4178 19.2335 33.6052 19.3365C33.7942 19.4371 33.9987 19.4883 34.2219 19.4883Z" fill="#0A0A0A"/>
</g>
<defs>
<filter id="filter0_d_1_466" x="0.0078125" y="0" width="91.9846" height="31.3103" filterUnits="userSpaceOnUse" color-interpolation-filters="sRGB">
<feFlood flood-opacity="0" result="BackgroundImageFix"/>
<feColorMatrix in="SourceAlpha" type="matrix" values="0 0 0 0 0 0 0 0 0 0 0 0 0 0 0 0 0 0 127 0" result="hardAlpha"/>
<feOffset dy="4"/>
<feGaussianBlur stdDeviation="2"/>
<feComposite in2="hardAlpha" operator="out"/>
<feColorMatrix type="matrix" values="0 0 0 0 0 0 0 0 0 0 0 0 0 0 0 0 0 0 0.25 0"/>
<feBlend mode="normal" in2="BackgroundImageFix" result="effect1_dropShadow_1_466"/>
<feBlend mode="normal" in="SourceGraphic" in2="effect1_dropShadow_1_466" result="shape"/>
</filter>
<clipPath id="clip0_1_466">
<rect width="83.9846" height="23.3103" fill="white" transform="translate(4.00781)"/>
</clipPath>
</defs>
</svg>
