<svg width="30" height="30" viewBox="0 0 30 30" fill="none" xmlns="http://www.w3.org/2000/svg">
<path d="M21.6142 29.7611C18.7185 29.7611 16.1192 27.9661 15.0655 25.2393L13.7008 21.7112C13.5608 21.3908 13.4121 21.1833 13.2546 21.087C13.0962 20.9906 12.8395 20.9425 12.4847 20.9425H11.8772L11.5176 23.9249C11.1151 27.2564 8.31856 29.7611 5 29.7611L7.78685 6.8352C8.19122 3.50375 10.9897 1 14.3093 1L12.3525 17.1195H12.7511C13.0806 17.1195 13.346 17.0684 13.5491 16.9662C13.7513 16.8639 13.9545 16.6781 14.1567 16.4088L17.0115 12.4531C18.1819 10.8321 20.0424 9.86878 22.0263 9.85796L25.3653 9.83831L19.8558 16.9278C19.6021 17.2611 19.3241 17.556 19.0198 17.8116C18.7155 18.0681 18.3987 18.2923 18.0701 18.4839C18.3364 18.7022 18.5668 18.9548 18.7632 19.2429C18.9595 19.5309 19.1335 19.8612 19.2852 20.2327L23.2365 29.7621H21.6142V29.7611Z" fill="#EF2C5A"/>
</svg>
