<svg width="32" height="32" viewBox="0 0 32 32" fill="none" xmlns="http://www.w3.org/2000/svg">
<path d="M6.61499 16.9988C7.25219 16.9988 7.76874 16.4822 7.76874 15.845C7.76874 15.2078 7.25219 14.6913 6.61499 14.6913C5.97779 14.6913 5.46124 15.2078 5.46124 15.845C5.46124 16.4822 5.97779 16.9988 6.61499 16.9988Z" fill="#0A0A0A"/>
<path d="M25.1442 14.6913H11.1608C10.5618 14.6913 10.0763 15.1768 10.0763 15.7758V15.9142C10.0763 16.5132 10.5618 16.9988 11.1608 16.9988H25.1442C25.7432 16.9988 26.2288 16.5132 26.2288 15.9142V15.7758C26.2288 15.1768 25.7432 14.6913 25.1442 14.6913Z" fill="#0A0A0A"/>
<path d="M25.1442 20.46H6.54577C5.9468 20.46 5.46124 20.9456 5.46124 21.5445V21.683C5.46124 22.2819 5.9468 22.7675 6.54577 22.7675H25.1442C25.7432 22.7675 26.2287 22.2819 26.2287 21.683V21.5445C26.2287 20.9456 25.7432 20.46 25.1442 20.46Z" fill="#0A0A0A"/>
<path d="M25.1442 8.92249H6.54577C5.9468 8.92249 5.46124 9.40804 5.46124 10.007V10.1455C5.46124 10.7444 5.9468 11.23 6.54577 11.23H25.1442C25.7432 11.23 26.2287 10.7444 26.2287 10.1455V10.007C26.2287 9.40804 25.7432 8.92249 25.1442 8.92249Z" fill="#0A0A0A"/>
</svg>
