<svg width="24" height="24" viewBox="0 0 24 24" fill="none" xmlns="http://www.w3.org/2000/svg">
<path d="M10.822 14.264V14.1255C10.8256 13.4828 10.886 12.9714 11.0032 12.5915C11.1239 12.2115 11.2943 11.9061 11.5145 11.6753C11.7347 11.4409 12.0028 11.226 12.3188 11.0307C12.5355 10.8958 12.729 10.7484 12.8995 10.5886C13.0735 10.4253 13.2102 10.2442 13.3096 10.0453C13.409 9.84287 13.4588 9.61738 13.4588 9.3688C13.4588 9.08826 13.3931 8.845 13.2617 8.63904C13.1303 8.43307 12.9527 8.27327 12.729 8.15964C12.5088 8.046 12.262 7.98918 11.9886 7.98918C11.7365 7.98918 11.4968 8.04422 11.2695 8.15431C11.0458 8.26084 10.8593 8.42419 10.7102 8.64437C10.5646 8.86098 10.4829 9.1362 10.4652 9.47H8.56885C8.5866 8.79529 8.74996 8.23066 9.0589 7.77611C9.3714 7.32157 9.78334 6.98066 10.2947 6.75338C10.8096 6.52611 11.3778 6.41248 11.9992 6.41248C12.6775 6.41248 13.2741 6.53144 13.789 6.76936C14.3075 7.00729 14.7105 7.34642 14.9982 7.78677C15.2894 8.22356 15.435 8.74202 15.435 9.34216C15.435 9.74699 15.3693 10.1092 15.2379 10.4288C15.11 10.7484 14.9272 11.0325 14.6892 11.2811C14.4513 11.5297 14.169 11.7516 13.8423 11.9469C13.5546 12.1245 13.3185 12.3091 13.1338 12.5009C12.9527 12.6927 12.8178 12.9182 12.729 13.1774C12.6438 13.4331 12.5994 13.7491 12.5958 14.1255V14.264H10.822ZM11.7489 17.5879C11.4293 17.5879 11.1541 17.4743 10.9233 17.247C10.6924 17.0197 10.577 16.7427 10.577 16.416C10.577 16.0964 10.6924 15.823 10.9233 15.5957C11.1541 15.3684 11.4293 15.2548 11.7489 15.2548C12.0649 15.2548 12.3384 15.3684 12.5692 15.5957C12.8036 15.823 12.9208 16.0964 12.9208 16.416C12.9208 16.6326 12.8657 16.8297 12.7556 17.0073C12.6491 17.1848 12.5071 17.3269 12.3295 17.4334C12.1555 17.5364 11.962 17.5879 11.7489 17.5879Z" fill="white"/>
<circle cx="12" cy="12" r="10" stroke="white" stroke-width="2" stroke-linecap="round" stroke-linejoin="round"/>
</svg>
